HIERARCHY
ROOT hip
{
  OFFSET 0 0 0
  CHANNELS 6 Xposition Yposition Zposition Zrotation Yrotation Xrotation
  JOINT abdomen
  {
    OFFSET 0 20.6881 -0.73152
    CHANNELS 3 Zrotation Xrotation Yrotation
    JOINT chest
    {
      OFFSET 0 11.7043 -0.48768
      CHANNELS 3 Zrotation Xrotation Yrotation
      JOINT neck
      {
        OFFSET 0 22.1894 -2.19456
        CHANNELS 3 Zrotation Xrotation Yrotation
        JOINT head
        {
          OFFSET -0.24384 7.07133 1.2192
          CHANNELS 3 Zrotation Xrotation Yrotation
          JOINT leftEye
          {
            OFFSET 4.14528 8.04674 8.04672
            CHANNELS 3 Zrotation Xrotation Yrotation
            End Site
            {
              OFFSET 1 0 0
            }
          }
          JOINT rightEye
          {
            OFFSET -3.6576 8.04674 8.04672
            CHANNELS 3 Zrotation Xrotation Yrotation
            End Site
            {
              OFFSET 1 0 0
            }
          }
        }
      }
      JOINT rCollar
      {
        OFFSET -2.68224 19.2634 -4.8768
        CHANNELS 3 Zrotation Xrotation Yrotation
        JOINT rShldr
        {
          OFFSET -8.77824 -1.95073 1.46304
          CHANNELS 3 Zrotation Xrotation Yrotation
          JOINT rForeArm
          {
            OFFSET -28.1742 -1.7115 0.48768
            CHANNELS 3 Zrotation Xrotation Yrotation
            JOINT rHand
            {
              OFFSET -22.5879 0.773209 7.07136
              CHANNELS 3 Zrotation Xrotation Yrotation
              JOINT rThumb1
              {
                OFFSET -1.2192 -0.487915 3.41376
                CHANNELS 3 Zrotation Xrotation Yrotation
                JOINT rThumb2
                {
                  OFFSET -3.37035 -0.52449 3.41376
                  CHANNELS 3 Zrotation Xrotation Yrotation
                  End Site
                  {
                    OFFSET -1.78271 -1.18214 1.43049
                  }
                }
              }
              JOINT rIndex1
              {
                OFFSET -7.75947 0.938293 5.60832
                CHANNELS 3 Zrotation Xrotation Yrotation
                JOINT rIndex2
                {
                  OFFSET -2.54057 -0.884171 1.56538
                  CHANNELS 3 Zrotation Xrotation Yrotation
                  End Site
                  {
                    OFFSET -1.62519 -0.234802 1.16502
                  }
                }
              }
              JOINT rMid1
              {
                OFFSET -8.24714 1.18213 3.41376
                CHANNELS 3 Zrotation Xrotation Yrotation
                JOINT rMid2
                {
                  OFFSET -3.10165 -0.590103 1.0647
                  CHANNELS 3 Zrotation Xrotation Yrotation
                  End Site
                  {
                    OFFSET -2.48547 -0.328903 0.83742
                  }
                }
              }
              JOINT rRing1
              {
                OFFSET -8.82822 0.546677 1.51678
                CHANNELS 3 Zrotation Xrotation Yrotation
                JOINT rRing2
                {
                  OFFSET -2.60934 -0.819778 -0.0198488
                  CHANNELS 3 Zrotation Xrotation Yrotation
                  End Site
                  {
                    OFFSET -2.33842 -0.294052 0.168128
                  }
                }
              }
              JOINT rPinky1
              {
                OFFSET -8.27202 -0.0477905 -0.4584
                CHANNELS 3 Zrotation Xrotation Yrotation
                JOINT rPinky2
                {
                  OFFSET -1.82734 -0.647385 -0.700984
                  CHANNELS 3 Zrotation Xrotation Yrotation
                  End Site
                  {
                    OFFSET -1.69225 -0.51767 -0.607171
                  }
                }
              }
            }
          }
        }
      }
      JOINT lCollar
      {
        OFFSET 2.68224 19.2634 -4.8768
        CHANNELS 3 Zrotation Xrotation Yrotation
        JOINT lShldr
        {
          OFFSET 8.77824 -1.95073 1.46304
          CHANNELS 3 Zrotation Xrotation Yrotation
          JOINT lForeArm
          {
            OFFSET 28.1742 -1.7115 0.48768
            CHANNELS 3 Zrotation Xrotation Yrotation
            JOINT lHand
            {
              OFFSET 22.5879 0.773209 7.07136
              CHANNELS 3 Zrotation Xrotation Yrotation
              JOINT lThumb1
              {
                OFFSET 1.2192 -0.487915 3.41376
                CHANNELS 3 Zrotation Xrotation Yrotation
                JOINT lThumb2
                {
                  OFFSET 3.37035 -0.52449 3.41376
                  CHANNELS 3 Zrotation Xrotation Yrotation
                  End Site
                  {
                    OFFSET 1.78271 -1.18214 1.43049
                  }
                }
              }
              JOINT lIndex1
              {
                OFFSET 7.75947 0.938293 5.60832
                CHANNELS 3 Zrotation Xrotation Yrotation
                JOINT lIndex2
                {
                  OFFSET 2.54057 -0.884171 1.56538
                  CHANNELS 3 Zrotation Xrotation Yrotation
                  End Site
                  {
                    OFFSET 1.62519 -0.234802 1.16502
                  }
                }
              }
              JOINT lMid1
              {
                OFFSET 8.24714 1.18213 3.41376
                CHANNELS 3 Zrotation Xrotation Yrotation
                JOINT lMid2
                {
                  OFFSET 3.10165 -0.590103 1.0647
                  CHANNELS 3 Zrotation Xrotation Yrotation
                  End Site
                  {
                    OFFSET 2.48547 -0.328903 0.83742
                  }
                }
              }
              JOINT lRing1
              {
                OFFSET 8.82822 0.546677 1.51678
                CHANNELS 3 Zrotation Xrotation Yrotation
                JOINT lRing2
                {
                  OFFSET 2.60934 -0.819778 -0.0198488
                  CHANNELS 3 Zrotation Xrotation Yrotation
                  End Site
                  {
                    OFFSET 2.33842 -0.294052 0.168128
                  }
                }
              }
              JOINT lPinky1
              {
                OFFSET 8.27202 -0.0477905 -0.4584
                CHANNELS 3 Zrotation Xrotation Yrotation
                JOINT lPinky2
                {
                  OFFSET 1.82734 -0.647385 -0.700984
                  CHANNELS 3 Zrotation Xrotation Yrotation
                  End Site
                  {
                    OFFSET 1.69225 -0.51767 -0.607171
                  }
                }
              }
            }
          }
        }
      }
    }
  }
  JOINT rButtock
  {
    OFFSET -8.77824 4.35084 1.2192
    CHANNELS 3 Zrotation Xrotation Yrotation
    JOINT rThigh
    {
      OFFSET 0 -1.70687 -2.19456
      CHANNELS 3 Zrotation Xrotation Yrotation
      JOINT rShin
      {
        OFFSET 0 -36.8199 0.73152
        CHANNELS 3 Zrotation Xrotation Yrotation
        JOINT rFoot
        {
          OFFSET 0.73152 -45.1104 -5.12064
          CHANNELS 3 Zrotation Xrotation Yrotation
          End Site
          {
            OFFSET -1.1221 -3.69964 12.103
          }
        }
      }
    }
  }
  JOINT lButtock
  {
    OFFSET 8.77824 4.35084 1.2192
    CHANNELS 3 Zrotation Xrotation Yrotation
    JOINT lThigh
    {
      OFFSET 0 -1.70687 -2.19456
      CHANNELS 3 Zrotation Xrotation Yrotation
      JOINT lShin
      {
        OFFSET 0 -36.8199 0.73152
        CHANNELS 3 Zrotation Xrotation Yrotation
        JOINT lFoot
        {
          OFFSET -0.73152 -45.1104 -5.12064
          CHANNELS 3 Zrotation Xrotation Yrotation
          End Site
          {
            OFFSET 1.1221 -3.69964 12.103
          }
        }
      }
    }
  }
}
MOTION
Frames:	9
Frame Time:	0.00833333
6.22752 85.3572 206.048 0.0 0.0 0.0 1.31605 -0.00470385 0.0362378 0.363463 -0.00359461 0.0629626 -3.24769e-14 0.0 9.93924e-17 -9.72927e-14 3.18055e-15 3.19919e-16 -0.0 0.0 0.0 -0.0 0.0 0.0 -1.61029e-14 8.61918e-17 2.48481e-16 -3.39679e-13 1.42255e-15 7.95139e-16 -5.87453e-12 1.81948e-12 9.54166e-14 -6.72908e-11 -1.43923e-12 1.24042e-13 -1.58726e-10 8.30285e-13 4.83444e-13 -2.74117e-10 1.43443e-12 8.36486e-13 -1.58721e-10 8.30522e-13 4.83444e-13 7.73091 5.47488 0.417314 -1.58727e-10 8.30423e-13 4.83444e-13 2.90554 0.965183 0.102902 -1.5872e-10 8.30522e-13 4.86625e-13 10.2786 0.731801 0.0259123 -1.58727e-10 8.2933e-13 4.99347e-13 2.22167 -0.733487 -0.20892 -1.63e-14 8.56094e-17 -1.49089e-16 -3.41956e-13 1.53437e-15 -3.97569e-16 -5.88616e-12 -1.69583e-12 6.36111e-14 -6.72928e-11 2.08925e-12 1.52667e-13 -1.58744e-10 8.5718e-13 4.86625e-13 -2.74142e-10 1.48532e-12 8.53184e-13 -1.58751e-10 8.5875e-13 4.99347e-13 -7.73091 5.47488 -0.417314 -1.58745e-10 8.5706e-13 4.86625e-13 -2.90554 0.965183 -0.102902 -1.58753e-10 8.57557e-13 4.86625e-13 -10.2786 0.731801 -0.0259123 -1.58738e-10 8.5716e-13 4.73903e-13 -2.22167 -0.733487 0.20892 -2.03217e-16 0.0 -3.88251e-19 1.46219 -6.13863 -0.134739 0.00180671 5.5615 0.0541941 -0.477895 0.575018 0.0659376 2.03217e-16 0.0 3.88251e-19 0.544683 -1.92085 0.00800553 0.00891046 -2.07861 0.0733847 0.452877 3.99724 -0.131545
7.34769 82.6392 194.334 176.454 1.2956 -176.866 0.683184 1.00808 -2.19243 1.19221 1.08005 -0.531226 1.33847 -3.37064 0.492425 -2.36484 8.33274 2.28474 -0.0 0.0 0.0 -0.0 0.0 0.0 -1.15726e-14 1.00672e-16 -1.37014e-15 18.0447 11.315 -10.4654 -14.6374 -11.8246 14.4394 0.00271499 1.19723 0.168147 -2.05534e-10 -5.61383e-11 1.65369e-10 -3.54765e-10 -9.7737e-11 2.86391e-10 -2.0553e-10 -5.61371e-11 1.65366e-10 7.73091 5.47488 0.417314 -2.05536e-10 -5.61368e-11 1.65371e-10 2.90554 0.965183 0.102902 -2.0553e-10 -5.61363e-11 1.65372e-10 10.2786 0.731801 0.0259123 -2.05536e-10 -5.6136e-11 1.65382e-10 2.22167 -0.733487 -0.20892 -1.17403e-14 9.86082e-17 -1.71335e-15 -19.2909 15.8754 1.86566 22.9083 -20.7853 -14.9117 -0.07803 6.2039 -0.853558 -3.94164e-11 -2.79987e-10 -6.38346e-11 -6.85268e-11 -4.86185e-10 -1.11651e-10 -3.94232e-11 -2.79983e-10 -6.38247e-11 -7.73091 5.47488 -0.417314 -3.94166e-11 -2.79987e-10 -6.38348e-11 -2.90554 0.965183 -0.102902 -3.94249e-11 -2.79987e-10 -6.38356e-11 -10.2786 0.731801 -0.0259123 -3.94102e-11 -2.79987e-10 -6.38466e-11 -2.22167 -0.733487 0.20892 -2.03217e-16 0.0 -3.88251e-19 2.00041 -14.5447 0.423476 -0.174053 15.4126 -0.0213394 -0.534432 2.31402 -3.58703 2.03217e-16 0.0 3.88251e-19 -0.258929 -5.22434 0.877431 0.164224 16.3695 -0.106006 0.216102 12.2094 2.79931
7.65352 82.0622 192.827 176.752 1.5799 -177.616 0.0733519 2.02699 -4.58122 2.09514 2.23282 -1.17103 2.81798 -6.928 1.02357 -5.62209 17.1052 4.87991 -0.0 0.0 0.0 -0.0 0.0 0.0 -6.8464e-15 1.38654e-16 -2.71776e-15 41.8034 21.9876 -22.9639 -23.5374 -21.805 31.5587 -0.00214736 2.42682 0.341097 -2.60514e-10 -1.19529e-10 3.53549e-10 -4.49492e-10 -2.08111e-10 6.1228e-10 -2.60511e-10 -1.19526e-10 3.53544e-10 7.73091 5.47488 0.417314 -2.60518e-10 -1.19525e-10 3.53553e-10 2.90554 0.965183 0.102902 -2.60513e-10 -1.19524e-10 3.53552e-10 10.2786 0.731801 0.0259123 -2.60516e-10 -1.19523e-10 3.53559e-10 2.22167 -0.733487 -0.20892 -6.98199e-15 1.35124e-16 -3.00351e-15 -40.9669 32.6507 4.35969 33.3636 -37.7518 -37.284 0.0450048 12.7458 -1.78815 1.09379e-10 -6.50839e-10 -1.45925e-10 1.87748e-10 -1.13031e-09 -2.55347e-10 1.09372e-10 -6.50833e-10 -1.45918e-10 -7.73091 5.47488 -0.417314 1.09379e-10 -6.50839e-10 -1.45925e-10 -2.90554 0.965183 -0.102902 1.09371e-10 -6.50839e-10 -1.45927e-10 -10.2786 0.731801 -0.0259123 1.09385e-10 -6.50839e-10 -1.45936e-10 -2.22167 -0.733487 0.20892 -2.03217e-16 0.0 -3.88251e-19 2.71604 -23.4657 1.07245 -0.328518 25.7453 -0.113818 -0.339522 4.21351 -7.41503 2.03217e-16 0.0 3.88251e-19 -1.05483 -8.62428 1.78683 0.473498 35.7018 -0.348234 -1.00635 20.8645 6.12704
7.95468 81.4988 191.371 177.021 1.9244 -178.287 -0.346501 3.01542 -6.658 2.91721 3.24601 -1.72208 4.19153 -10.1089 1.49798 -9.2551 24.8309 7.47642 -0.0 0.0 0.0 -0.0 0.0 0.0 -2.51187e-15 1.29633e-16 -4.60738e-15 67.2873 29.1222 -35.8587 -26.3839 -26.1291 48.6568 -0.0129713 3.59158 0.505323 -2.99151e-10 -1.70076e-10 4.95139e-10 -5.16063e-10 -2.9608e-10 8.575e-10 -2.99147e-10 -1.70072e-10 4.95132e-10 7.73091 5.47488 0.417314 -2.99155e-10 -1.70071e-10 4.95145e-10 2.90554 0.965183 0.102902 -2.99151e-10 -1.7007e-10 4.95142e-10 10.2786 0.731801 0.0259123 -2.99153e-10 -1.70067e-10 4.95147e-10 2.22167 -0.733487 -0.20892 -2.62095e-15 1.24606e-16 -4.84188e-15 -62.2177 47.3738 7.96333 30.7294 -42.2461 -64.1242 0.346214 18.5947 -2.68598 1.99239e-10 -8.41674e-10 -1.92477e-10 3.42704e-10 -1.46152e-09 -3.3666e-10 1.99232e-10 -8.41667e-10 -1.92473e-10 -7.73091 5.47488 -0.417314 1.99239e-10 -8.41674e-10 -1.92478e-10 -2.90554 0.965183 -0.102902 1.99231e-10 -8.41675e-10 -1.9248e-10 -10.2786 0.731801 -0.0259123 1.99245e-10 -8.41675e-10 -1.92488e-10 -2.22167 -0.733487 0.20892 -2.03217e-16 0.0 -3.88251e-19 3.64144 -31.346 1.75367 -0.434033 35.1147 -0.207327 0.0159862 5.70085 -10.9389 2.03217e-16 0.0 3.88251e-19 -1.55966 -11.8207 2.66184 0.995897 53.2633 -0.755357 -3.06769 28.335 9.63359
8.35657 81.0388 190.023 177.774 2.2194 -178.978 -0.446506 3.94439 -7.94841 3.48672 3.91168 -2.0487 5.17261 -12.3516 1.81052 -12.2207 30.103 9.4758 -0.0 0.0 0.0 -0.0 0.0 0.0 8.43556e-16 3.10601e-18 -7.85199e-15 87.1291 32.3135 -45.2736 -26.8054 -25.7083 60.4151 -0.0259583 4.59435 0.647095 -2.96927e-10 -1.88515e-10 5.20256e-10 -5.12245e-10 -3.28036e-10 9.01047e-10 -2.96923e-10 -1.88511e-10 5.20247e-10 7.73091 5.47488 0.417314 -2.96932e-10 -1.8851e-10 5.20262e-10 2.90554 0.965183 0.102902 -2.96928e-10 -1.88509e-10 5.20258e-10 10.2786 0.731801 0.0259123 -2.9693e-10 -1.88504e-10 5.20262e-10 2.22167 -0.733487 -0.20892 7.46813e-16 -3.49426e-18 -8.05078e-15 -79.2937 57.1633 12.4126 28.3385 -37.9295 -80.2855 0.67844 22.7271 -3.37482 1.4176e-10 -5.82466e-10 -1.50186e-10 2.44363e-10 -1.01046e-09 -2.62016e-10 1.41753e-10 -5.82456e-10 -1.50183e-10 -7.73091 5.47488 -0.417314 1.41761e-10 -5.82465e-10 -1.50186e-10 -2.90554 0.965183 -0.102902 1.41753e-10 -5.82466e-10 -1.50189e-10 -10.2786 0.731801 -0.0259123 1.41765e-10 -5.82466e-10 -1.50195e-10 -2.22167 -0.733487 0.20892 -2.03217e-16 0.0 -3.88251e-19 4.66677 -36.6347 2.32022 -0.49128 42.0761 -0.268755 0.262378 6.2481 -13.6524 2.03217e-16 0.0 3.88251e-19 -1.52616 -14.5163 3.41806 1.82367 66.3985 -1.47537 -5.17293 33.1057 12.7011
8.6864 80.4866 188.662 178.298 2.4611 -179.65 -0.131698 4.84229 -8.11855 3.6815 4.08381 -2.05268 5.54573 -13.2776 1.88147 -13.3969 32.0504 10.1565 -0.0 0.0 0.0 -0.0 0.0 0.0 2.91802e-15 -2.71042e-15 -1.35911e-14 95.1189 33.5304 -47.9031 -26.8726 -24.6253 64.3774 -0.0370127 5.36198 0.755895 -2.28886e-10 -1.51241e-10 3.4742e-10 -3.95102e-10 -2.62855e-10 6.01951e-10 -2.28881e-10 -1.51238e-10 3.4741e-10 7.73091 5.47488 0.417314 -2.28889e-10 -1.51238e-10 3.47426e-10 2.90554 0.965183 0.102902 -2.28885e-10 -1.51237e-10 3.47422e-10 10.2786 0.731801 0.0259123 -2.28889e-10 -1.51232e-10 3.47426e-10 2.22167 -0.733487 -0.20892 2.81126e-15 -2.71913e-15 -1.37736e-14 -87.2137 60.3325 15.1811 28.3024 -34.7233 -84.37 0.849533 24.4937 -3.68608 -2.04547e-10 5.79747e-10 7.14672e-11 -3.50282e-10 1.01032e-09 1.27442e-10 -2.04554e-10 5.79761e-10 7.14719e-11 -7.73091 5.47488 -0.417314 -2.04546e-10 5.79752e-10 7.14687e-11 -2.90554 0.965183 -0.102902 -2.04554e-10 5.7975e-10 7.1465e-11 -10.2786 0.731801 -0.0259123 -2.04543e-10 5.79748e-10 7.14596e-11 -2.22167 -0.733487 0.20892 -2.03217e-16 0.0 -3.88251e-19 5.66192 -38.2655 2.60954 -0.530367 45.6842 -0.255467 0.113544 5.49655 -15.2181 2.03217e-16 0.0 3.88251e-19 -0.747383 -16.4612 4.03471 2.81657 73.4295 -2.41737 -6.18356 34.302 14.4494
8.98652 79.945 187.347 178.799 2.6269 -180.273 0.440705 5.72163 -7.48697 3.60588 3.90391 -1.82623 5.4719 -13.2639 1.7759 -13.0771 31.6598 9.75195 -0.0 0.0 0.0 -0.0 0.0 0.0 4.07323e-15 -7.15644e-15 -2.10836e-14 93.9545 34.1622 -45.3703 -26.749 -24.4221 63.2721 -0.0455661 5.96206 0.841109 -1.14242e-10 -7.46852e-11 3.48511e-11 -1.97716e-10 -1.29181e-10 6.09821e-11 -1.14236e-10 -7.46832e-11 3.48414e-11 7.73091 5.47488 0.417314 -1.14244e-10 -7.4685e-11 3.48549e-11 2.90554 0.965183 0.102902 -1.14239e-10 -7.46841e-11 3.48521e-11 10.2786 0.731801 0.0259123 -1.14246e-10 -7.46799e-11 3.48565e-11 2.22167 -0.733487 -0.20892 3.94061e-15 -7.16762e-15 -2.12637e-14 -86.9803 58.9311 15.255 28.3224 -34.4601 -82.6689 0.849882 24.5731 -3.69816 -7.5323e-10 2.37397e-09 4.18618e-10 -1.29268e-09 4.12973e-09 7.37174e-10 -7.53236e-10 2.37399e-09 4.18626e-10 -7.73091 5.47488 -0.417314 -7.53228e-10 2.37398e-09 4.18621e-10 -2.90554 0.965183 -0.102902 -7.53236e-10 2.37397e-09 4.18617e-10 -10.2786 0.731801 -0.0259123 -7.53226e-10 2.37397e-09 4.18613e-10 -2.22167 -0.733487 0.20892 -2.03217e-16 0.0 -3.88251e-19 6.56203 -37.288 2.64922 -0.570904 46.8962 -0.177144 -0.378849 3.84187 -15.9672 2.03217e-16 0.0 3.88251e-19 0.543398 -17.8735 4.54461 3.55731 76.0982 -3.16054 -6.0691 33.0261 15.038
9.23912 79.4153 186.081 179.222 2.6965 -180.814 1.02385 6.53185 -6.55675 3.42423 3.59569 -1.51855 5.22137 -12.8827 1.6012 -12.1735 30.3563 8.93517 -0.0 0.0 0.0 -0.0 0.0 0.0 4.71711e-15 -8.41949e-15 -2.83214e-14 89.1197 34.3284 -40.6553 -26.5106 -24.452 60.1456 -0.0530993 6.50859 0.918802 5.26169e-12 3.65187e-13 -2.77789e-10 8.11533e-12 1.93735e-12 -4.80254e-10 5.26934e-12 3.66016e-13 -2.77798e-10 7.73091 5.47488 0.417314 5.26175e-12 3.62826e-13 -2.77787e-10 2.90554 0.965183 0.102902 5.2665e-12 3.63164e-13 -2.77789e-10 10.2786 0.731801 0.0259123 5.25716e-12 3.6676e-13 -2.77783e-10 2.22167 -0.733487 -0.20892 4.55627e-15 -8.43259e-15 -2.85085e-14 -83.4684 55.7004 14.2739 28.359 -35.1426 -78.5648 0.775772 23.9374 -3.58184 -1.25078e-09 3.98428e-09 7.27998e-10 -2.14748e-09 6.92934e-09 1.28066e-09 -1.25078e-09 3.9843e-09 7.2801e-10 -7.73091 5.47488 -0.417314 -1.25077e-09 3.98429e-09 7.28004e-10 -2.90554 0.965183 -0.102902 -1.25078e-09 3.98429e-09 7.28e-10 -10.2786 0.731801 -0.0259123 -1.25077e-09 3.98428e-09 7.27995e-10 -2.22167 -0.733487 0.20892 -2.03217e-16 0.0 -3.88251e-19 7.30542 -35.3284 2.52866 -0.608474 47.1215 -0.069378 -1.00484 1.90609 -16.3803 2.03217e-16 0.0 3.88251e-19 1.92443 -19.1591 4.93917 3.95548 76.878 -3.58777 -5.48241 30.784 15.1931
9.43249 78.907 184.864 179.513 2.6785 -181.241 1.40472 7.21953 -5.83375 3.29643 3.38318 -1.27848 5.06206 -12.7065 1.46437 -11.5655 29.5735 8.36125 -0.0 0.0 0.0 -0.0 0.0 0.0 5.25756e-15 -1.58407e-15 -3.32964e-14 86.1377 34.4576 -36.898 -26.3007 -24.232 58.0507 -0.0625021 7.11551 1.00524 8.78819e-11 3.31223e-11 -4.50837e-10 1.50595e-10 5.94541e-11 -7.80148e-10 8.78903e-11 3.31223e-11 -4.50847e-10 7.73091 5.47488 0.417314 8.78829e-11 3.31189e-11 -4.50837e-10 2.90554 0.965183 0.102902 8.7888e-11 3.31189e-11 -4.50837e-10 10.2786 0.731801 0.0259123 8.78769e-11 3.31219e-11 -4.50831e-10 2.22167 -0.733487 -0.20892 5.07966e-15 -1.59765e-15 -3.34952e-14 -81.5737 53.351 13.8553 28.4266 -35.05 -75.428 0.732821 23.5581 -3.51319 -1.44367e-09 4.59477e-09 8.36343e-10 -2.47933e-09 7.99073e-09 1.47137e-09 -1.44368e-09 4.59479e-09 8.36355e-10 -7.73091 5.47488 -0.417314 -1.44367e-09 4.59478e-09 8.36349e-10 -2.90554 0.965183 -0.102902 -1.44368e-09 4.59478e-09 8.36344e-10 -10.2786 0.731801 -0.0259123 -1.44367e-09 4.59477e-09 8.3634e-10 -2.22167 -0.733487 0.20892 -2.03217e-16 0.0 -3.88251e-19 7.84006 -34.0116 2.33966 -0.642441 47.7696 0.034281 -1.56687 0.311091 -16.918 2.03217e-16 0.0 3.88251e-19 2.98839 -20.7231 5.21665 4.6102 78.2366 -4.26353 -5.11709 29.0548 15.6378
